<?xml version="1.0" encoding="UTF-8"?>
<svg width="49px" height="49px" viewBox="0 0 49 49" version="1.1" xmlns="http://www.w3.org/2000/svg" xmlns:xlink="http://www.w3.org/1999/xlink">
    <!-- Generator: Sketch 49.3 (51167) - http://www.bohemiancoding.com/sketch -->
    <title>clover-mark@2x</title>
    <desc>Created with Sketch.</desc>
    <defs></defs>
    <g id="FTUE" stroke="none" stroke-width="1" fill="none" fill-rule="evenodd">
        <g id="loading" transform="translate(-163.000000, -284.000000)" fill="#43B02A" fill-rule="nonzero">
            <g id="clover-mark" transform="translate(163.000000, 284.000000)">
                <path d="M22.8056426,11.6155844 C22.8342101,7.02365293 20.0741877,2.86805497 15.8155867,1.09108228 C11.5569857,-0.685890412 6.64090529,0.266724887 3.36508038,3.50368375 C0.089255472,6.74064261 -0.899318975,11.6226263 0.861408471,15.8678365 C2.62213592,20.1130467 6.78441106,22.883029 11.4028213,22.8831169 L22.8058623,22.8831169 L22.8056426,11.6155844 Z" id="Shape"></path>
                <path d="M26.0971787,11.6155844 C26.0686112,7.02365293 28.8286337,2.86805497 33.0872347,1.09108228 C37.3458356,-0.685890412 42.261916,0.266724887 45.5377409,3.50368375 C48.8135658,6.74064261 49.8021403,11.6226263 48.0414128,15.8678365 C46.2806854,20.1130467 42.1184103,22.883029 37.5,22.8831169 L26.096959,22.8831169 L26.0971787,11.6155844 Z" id="Shape"></path>
                <path d="M26.0971787,37.4467532 C26.0686112,42.0386847 28.8286337,46.1942827 33.0872347,47.9712554 C37.3458356,49.7482281 42.261916,48.7956128 45.5377409,45.5586539 C48.8135658,42.321695 49.8021403,37.4397113 48.0414128,33.1945011 C46.2806854,28.9492909 42.1184103,26.1793086 37.5,26.1792208 L26.096959,26.1792208 L26.0971787,37.4467532 Z" id="Shape"></path>
                <path d="M11.4028213,45.5350649 C15.9123829,45.5480234 19.5822522,41.9304907 19.6081505,37.4467532 L19.6081505,29.3584416 L11.4028213,29.3584416 C6.91009741,29.3584416 3.26802508,32.979702 3.26802508,37.4467532 C3.26802508,41.9138044 6.91009741,45.5350649 11.4028213,45.5350649 Z M22.8056426,37.4467532 C22.8342101,42.0386847 20.0741877,46.1942827 15.8155867,47.9712554 C11.5569857,49.7482281 6.64090529,48.7956128 3.36508038,45.5586539 C0.089255472,42.321695 -0.899318975,37.4397113 0.861408471,33.1945011 C2.62213592,28.9492909 6.78441106,26.1793086 11.4028213,26.1792208 L22.8058623,26.1792208 L22.8056426,37.4467532 Z" id="Shape"></path>
            </g>
        </g>
    </g>
</svg>